<svg xmlns="http://www.w3.org/2000/svg" version="1.1" xmlns:xlink="http://www.w3.org/1999/xlink" xmlns:svgjs="http://svgjs.dev/svgjs" width="1000" height="492" viewBox="0 0 1000 492"><g transform="matrix(1,0,0,1,-0.606049021769195,0.06845022621183716)"><svg viewBox="0 0 396 195" data-background-color="#ffffff" preserveAspectRatio="xMidYMid meet" height="492" width="1000" xmlns="http://www.w3.org/2000/svg" xmlns:xlink="http://www.w3.org/1999/xlink"><g id="tight-bounds" transform="matrix(1,0,0,1,0.2399954126206012,-0.027129662827860557)"><svg viewBox="0 0 395.52 195.05425357251443" height="195.05425357251443" width="395.52"><g><svg viewBox="0 0 395.52 195.05425357251443" height="195.05425357251443" width="395.52"><g><svg viewBox="0 0 395.52 195.05425357251443" height="195.05425357251443" width="395.52"><g id="textblocktransform"><svg viewBox="0 0 395.52 195.05425357251443" height="195.05425357251443" width="395.52" id="textblock"><g><svg viewBox="0 0 395.52 195.05425357251443" height="195.05425357251443" width="395.52"><g transform="matrix(1,0,0,1,0,0)"><svg width="395.52" viewBox="1.2999992370605469 -36.45000076293945 164.4499969482422 77.5999984741211" height="195.05425357251443" data-palette-color="#ff0000"><svg></svg><svg></svg><g class="undefined-text-0" data-fill-palette-color="primary" id="text-0"><path xmlns="http://www.w3.org/2000/svg" d="M2.65-32.7v-3.75h23.7v3.4l-18.65 29.3h19.35l-0.4 3.75h-25.15v-3.5l18.65-29.2zM42-36.45h4.75l12.65 36.45h-5.6l-4.1-12.1h-11.75l-4.15 12.1h-4.5zM48.45-15.8l-4.6-14-4.65 14zM64.2-33.2l-0.7-3.25h22.1v3.75h-16.3v12.1h12.6v3.75h-12.6v13.1h16.3v3.75h-21.4zM91.65-33.2l-0.7-3.25h22.1v3.75h-16.3v12.1h12.6v3.75h-12.6v13.1h16.3v3.75h-21.4zM118.5-36.45h7.35l8.6 23.1c0.333 0.867 0.633 1.723 0.9 2.57 0.267 0.853 0.533 1.797 0.8 2.83v0c0.267-1.033 0.517-1.96 0.75-2.78 0.233-0.813 0.517-1.637 0.85-2.47v0l8.55-23.25h6.6v36.45h-5.05v-26.05c0-0.6 0.027-1.183 0.08-1.75 0.047-0.567 0.087-1.183 0.12-1.85v0c-0.2 0.533-0.417 1.083-0.65 1.65-0.233 0.567-0.45 1.15-0.65 1.75v0l-9.6 26.3h-3l-9.75-26.5c-0.2-0.533-0.407-1.083-0.62-1.65-0.22-0.567-0.413-1.083-0.58-1.55v0c0.067 0.6 0.11 1.173 0.13 1.72 0.013 0.553 0.02 1.113 0.02 1.68v0 26.25h-4.15v-33.2z" fill="#ff0000" fill-rule="nonzero" stroke="none" stroke-width="1" stroke-linecap="butt" stroke-linejoin="miter" stroke-miterlimit="10" stroke-dasharray="" stroke-dashoffset="0" font-family="none" font-weight="none" font-size="none" text-anchor="none" style="mix-blend-mode: normal" data-fill-palette-color="primary" opacity="1"></path><path xmlns="http://www.w3.org/2000/svg" d="M14 3.6v0c1.7 0 3.36 0.233 4.98 0.7 1.613 0.467 3.137 1.15 4.57 2.05v0l-2.5 3.55c-1.033-0.767-2.157-1.377-3.37-1.83-1.22-0.447-2.463-0.67-3.73-0.67v0c-1.667 0-3.1 0.417-4.3 1.25-1.2 0.833-1.8 2.167-1.8 4v0c0 1.067 0.277 1.967 0.83 2.7 0.547 0.733 1.287 1.373 2.22 1.92 0.933 0.553 1.967 1.097 3.1 1.63v0c1.167 0.533 2.357 1.117 3.57 1.75 1.22 0.633 2.347 1.373 3.38 2.22 1.033 0.853 1.86 1.887 2.48 3.1 0.613 1.22 0.92 2.713 0.92 4.48v0c0 2.433-0.583 4.44-1.75 6.02-1.167 1.587-2.707 2.763-4.62 3.53-1.92 0.767-3.98 1.15-6.18 1.15v0c-1.867 0-3.673-0.243-5.42-0.73-1.753-0.48-3.447-1.153-5.08-2.02v0l1.9-4.4c1.133 0.967 2.477 1.76 4.03 2.38 1.547 0.613 3.053 0.92 4.52 0.92v0c1.1 0 2.2-0.21 3.3-0.63 1.1-0.413 2.017-1.07 2.75-1.97 0.733-0.9 1.1-2.05 1.1-3.45v0c0-1.4-0.35-2.56-1.05-3.48-0.7-0.913-1.607-1.697-2.72-2.35-1.12-0.647-2.313-1.253-3.58-1.82v0c-1.1-0.533-2.19-1.083-3.27-1.65-1.087-0.567-2.08-1.233-2.98-2-0.9-0.767-1.617-1.693-2.15-2.78-0.533-1.08-0.8-2.37-0.8-3.87v0c0-2.167 0.567-3.967 1.7-5.4 1.133-1.433 2.593-2.51 4.38-3.23 1.78-0.713 3.637-1.07 5.57-1.07zM52.25 40.55v-17h-17.2v17h-5.1v-33.2c0-0.033-0.057-0.293-0.17-0.78-0.12-0.48-0.23-0.987-0.33-1.52-0.1-0.533-0.167-0.85-0.2-0.95v0h5.8v15.7h17.2v-15.7h5.15v36.45zM74.95 4.1h4.75l12.65 36.45h-5.6l-4.1-12.1h-11.75l-4.15 12.1h-4.5zM81.4 24.75l-4.6-14-4.65 14zM97.15 7.35l-0.7-3.25h5.8v16.3l14-16.3h5.15l-13.8 16.15 14.75 20.3h-6.25l-13.85-18.85v18.85h-5.1zM125.65 4.1v0h5.8v36.45h-5.1v-33.2c0-0.033-0.06-0.293-0.18-0.78-0.113-0.48-0.22-0.987-0.32-1.52-0.1-0.533-0.167-0.85-0.2-0.95zM139.65 7.35l-0.7-3.25h11.2c2.3 0 4.383 0.3 6.25 0.9 1.867 0.6 3.34 1.623 4.42 3.07 1.087 1.453 1.63 3.48 1.63 6.08v0c0 1.333-0.327 2.623-0.98 3.87-0.647 1.253-1.51 2.337-2.59 3.25-1.087 0.92-2.263 1.58-3.53 1.98v0l10.4 17.3h-5.9l-9.55-16.35h-5.55v16.35h-5.1zM150 7.9h-5.25v12.6h3.85c1.6 0 3.04-0.183 4.32-0.55 1.287-0.367 2.303-1.033 3.05-2 0.753-0.967 1.13-2.317 1.13-4.05v0c0-1.367-0.333-2.493-1-3.38-0.667-0.88-1.533-1.537-2.6-1.97-1.067-0.433-2.233-0.65-3.5-0.65z" fill="#ca3433" fill-rule="nonzero" stroke="none" stroke-width="1" stroke-linecap="butt" stroke-linejoin="miter" stroke-miterlimit="10" stroke-dasharray="" stroke-dashoffset="0" font-family="none" font-weight="none" font-size="none" text-anchor="none" style="mix-blend-mode: normal" data-fill-palette-color="secondary" opacity="1"></path></g></svg></g></svg></g></svg></g></svg></g></svg></g><defs></defs></svg><rect width="395.52" height="195.05425357251443" fill="none" stroke="none" visibility="hidden"></rect></g></svg></g></svg>